# xmcd CD database file
#
# Track frame offsets:
#	150
#	14451
#	28507
#	42776
#	57484
#	70612
#	82595
#	94904
#	108038
#	122456
#	135572
#	149016
#	159728
#	171461
#	186014
#	199656
#	212524
#
# Disc length: 2984 seconds
#
# Revision: 0
# Processed by: cddbd v1.5.1PL0 Copyright (c) Steve Scherf et al.
# Submitted via: CDex 1.51
#
DISCID=e20ba611
DTITLE=Erroll Garner - Ultimate Jazz and Blues
DYEAR=2004
DGENRE=Jazz
TTITLE0=I can't give anything but love
TTITLE1=Loot te boot
TTITLE2=Sweet lorraine
TTITLE3=Impressions
TTITLE4=Pastel
TTITLE5=Moonglow
TTITLE6=Stardust
TTITLE7=Frantonality
TTITLE8=The way you look tonight
TTITLE9=Frankie and johnny fantasy
TTITLE10=Yesterdays
TTITLE11=This can´t be love
TTITLE12=I cant believe that youre in love with me
TTITLE13=Play piano play
TTITLE14=Blue and sentimental
TTITLE15=Turquoise
TTITLE16=She´s funny that way
EXTD=YEAR: 2004
EXTT0=
EXTT1=
EXTT2=
EXTT3=
EXTT4=
EXTT5=
EXTT6=
EXTT7=
EXTT8=
EXTT9=
EXTT10=
EXTT11=
EXTT12=
EXTT13=
EXTT14=
EXTT15=
EXTT16=
PLAYORDER=
